HIERARCHY
ROOT pelvis
{
  OFFSET 0 100 0
  CHANNELS 6 Xposition Yposition Zposition Zrotation Xrotation Yrotation
  JOINT pelvis_right_femur
  {
    OFFSET -10.78128 -3.44521 -0.5502486
    CHANNELS 3 Zrotation Xrotation Yrotation
    JOINT right_femur_tibia
    {
      OFFSET -0.8047443 -44.0398 -0.1307829
      CHANNELS 3 Zrotation Xrotation Yrotation
      JOINT right_tibia_foot
      {
        OFFSET 3.006224 -47.83518 -5
        CHANNELS 3 Zrotation Xrotation Yrotation
        End Site
        {
          OFFSET 0 -5 15
        }
      }
    }
  }
  JOINT pelvis_left_femur
  {
    OFFSET 10.78128 -3.44521 -0.5502486
    CHANNELS 3 Zrotation Xrotation Yrotation
    JOINT left_femur_tibia
    {
      OFFSET 0.8047443 -44.0398 -0.1307829
      CHANNELS 3 Zrotation Xrotation Yrotation
      JOINT left_tibia_foot
      {
        OFFSET -4.370144 -48.10324 -4.275266
        CHANNELS 3 Zrotation Xrotation Yrotation
        End Site
        {
          OFFSET 0 -5 15
        }
      }
    }
  }
  JOINT pelvis_spine1
  {
    OFFSET 0 6.468898 -3.129235
    CHANNELS 3 Zrotation Xrotation Yrotation
    JOINT spine1
    {
      OFFSET 0 23.15396 4.99043
      CHANNELS 3 Zrotation Xrotation Yrotation
      JOINT spine2
      {
        OFFSET 0 20.79997 -5.064912
        CHANNELS 3 Zrotation Xrotation Yrotation
        JOINT neck
        {
          OFFSET 0 14.38658 9.616178
          CHANNELS 3 Zrotation Xrotation Yrotation
          End Site
          {
            OFFSET 0 20 0
          }
        }
      }
      JOINT right_manubrium
      {
        OFFSET -5.722621 16.35077 3.967754
        CHANNELS 3 Zrotation Xrotation Yrotation
        JOINT right_clavicle
        {
          OFFSET -13.16364 1.694482 -4.693211
          CHANNELS 3 Zrotation Xrotation Yrotation
          JOINT right_humerus
          {
            OFFSET -28.5034 -0.3100689 -2.792744
            CHANNELS 3 Zrotation Xrotation Yrotation
            JOINT right_radius
            {
              OFFSET -25.15693 0.02248979 -1.271978
              CHANNELS 3 Zrotation Xrotation Yrotation
              End Site
              {
                OFFSET -15 0 0
              }
            }
          }
        }
      }
      JOINT left_manubrium
      {
        OFFSET 5.722621 16.35077 3.967754
        CHANNELS 3 Zrotation Xrotation Yrotation
        JOINT left_clavicle
        {
          OFFSET 13.16364 1.694482 -4.693211
          CHANNELS 3 Zrotation Xrotation Yrotation
          JOINT left_humerus
          {
            OFFSET 29.39168 -1.063119 -2.237045
            CHANNELS 3 Zrotation Xrotation Yrotation
            JOINT left_radius
            {
              OFFSET 24.59957 -0.9528479 0.9047498
              CHANNELS 3 Zrotation Xrotation Yrotation
              End Site
              {
                OFFSET 15 -0 -0
              }
            }
          }
        }
      }
    }
  }
}
MOTION
Frames: 7
Frame Time: 0.0416666666667
0 103.5113 0 2.201434 -2.611293 0.3114733 1.569739 -12.95002 6.198998 -0 34.86013 -0 -5.067367 -18.17026 -3.882998 -7.352285 14.28805 -25.38174 -0 3.763265 -0 -1.149227 -20.69545 22.1321 -4.22325 -2.88656 3.574439 1.664393 7.386532 -6.99758 0.7108801 24.04381 7.924447 4.004828 -21.33024 8.520854 5.927166 -18.45491 10.91838 87.30007 35.63381 -22.11931 -0 0 15.23986 -7.154214 6.921748 4.234655 4.369841 -18.49242 -3.895515 -99.32876 42.3669 26.89217 0 0 -22.82782 -11.40665 15.62831 27.37627
0.119149 103.2603 1.31403 1.746257 -2.172926 0.4895678 2.118772 -14.75278 6.353505 -0 34.97039 -0 -5.407765 -17.20231 -4.010152 -6.933841 14.34636 -25.04103 -0 4.059702 -0 -1.327568 -21.1452 21.74676 -4.005465 -2.76419 3.385432 1.849931 7.32373 -7.242259 0.7299239 23.79442 7.942075 4.031936 -21.84938 8.569057 5.980775 -18.36556 10.95138 87.16004 35.54322 -22.05625 -0 0 15.21251 -7.274322 7.168521 4.336248 4.560281 -18.69457 -3.525742 -99.08678 41.67632 26.62306 0 0 -22.31122 -10.85577 16.0398 26.73068
0.2387377 102.9951 2.811899 1.376487 -1.793311 0.673927 2.606274 -16.67941 6.332137 -0 34.66073 -0 -5.700396 -15.59064 -4.042092 -6.583918 14.35654 -24.40249 -0 4.32615 -0 -1.350114 -21.50926 21.38586 -3.827635 -2.529958 3.201817 1.984438 7.416715 -7.489464 0.6886236 23.50313 8.050885 4.169124 -22.20984 8.525626 6.075977 -18.26916 11.02206 87.14028 35.80748 -22.08237 -0 0 14.96629 -7.779256 7.621703 4.670292 4.726369 -19.00648 -3.406639 -98.43158 40.96517 26.00933 0 0 -22.3638 -10.33218 16.03875 26.16185
0.3383996 102.6907 4.458273 0.9860917 -1.316189 0.8779318 3.121115 -18.77001 6.314173 -0 33.73778 -0 -5.944663 -14.64168 -3.951627 -6.219846 14.59312 -24.13251 -0 4.493924 -0 -1.931677 -22.05062 20.78976 -3.472888 -2.297017 3.136734 1.96888 7.247218 -7.549713 0.8045289 23.3566 8.068575 4.245783 -22.55092 8.649962 5.940669 -18.16029 10.86907 87.3146 35.8467 -22.26215 -0 0 14.90288 -7.664504 7.785023 4.467274 4.973436 -19.20614 -3.249886 -98.44608 40.98886 26.00562 0 0 -22.79096 -10.05845 16.31195 26.21468
0.4087686 102.333 6.221214 0.6827423 -0.8672226 1.121989 3.537688 -20.60896 6.246972 -0 32.49554 -0 -6.114253 -14.10999 -3.755424 -5.936198 14.9436 -24.12032 -0 4.578991 -0 -2.770326 -22.57759 20.14652 -3.072692 -2.077631 3.161961 1.820237 6.960638 -7.453638 1.003349 23.34174 8.041909 4.303103 -22.75848 8.850882 5.696736 -18.04178 10.59145 87.63304 35.89414 -22.54207 -0 0 14.89783 -7.234512 7.804914 3.970481 5.215857 -19.30739 -3.174529 -98.82945 41.5826 26.35179 0 0 -23.58806 -10.0455 16.66123 26.75973
0.4403492 101.9292 8.058416 0.4535256 -0.4555196 1.42473 3.854955 -22.0946 6.152569 -0 31.18664 -0 -6.235084 -14.04037 -3.46789 -5.724765 15.38139 -24.40515 -0 4.620858 -0 -3.866988 -23.06499 19.4644 -2.634494 -1.896143 3.263081 1.548798 6.547646 -7.202864 1.29121 23.46964 7.953615 4.320571 -22.85807 9.13777 5.353722 -17.9095 10.19933 88.0631 35.90595 -22.87998 -0 0 14.96687 -6.46222 7.660375 3.167977 5.44123 -19.29056 -3.138727 -99.65288 42.70733 27.11128 0 0 -24.61428 -10.26121 17.17565 27.72972
0.4312129 101.4981 9.944795 0.2749898 -0.1010153 1.800676 4.089113 -23.22657 6.040582 -0 30.05983 -0 -6.336611 -14.2009 -3.137576 -5.566286 15.81477 -24.83839 -0 4.688197 -0 -5.06373 -23.46554 18.78546 -2.198738 -1.750613 3.39507 1.2167 6.088083 -6.870993 1.62108 23.68252 7.824161 4.304717 -22.89223 9.462765 4.972932 -17.76974 9.76731 88.53361 35.887 -23.21159 -0 0 15.06075 -5.548807 7.428704 2.236405 5.631068 -19.20127 -3.123713 -100.7268 44.05098 28.10947 0 0 -25.6808 -10.56939 17.79152 28.85546
